<svg width="38" height="38" viewBox="0 0 38 38" fill="none" xmlns="http://www.w3.org/2000/svg">
<path d="M4.75 22.5001C4.05964 22.5001 3.5 23.0597 3.5 23.7501C3.5 24.4404 4.05964 25.0001 4.75 25.0001V22.5001ZM33.25 25.0001C33.9404 25.0001 34.5 24.4404 34.5 23.7501C34.5 23.0597 33.9404 22.5001 33.25 22.5001V25.0001ZM32.9734 34.8334L32.4936 35.9877C32.8542 36.1376 33.2642 36.1103 33.6019 35.9139C33.9395 35.7175 34.1659 35.3746 34.2139 34.987L32.9734 34.8334ZM28.098 31.4151L29.173 30.7773L28.098 31.4151ZM31.2096 34.1003L31.6894 32.946H31.6894L31.2096 34.1003ZM32.369 29.0154L31.294 29.6532L32.369 29.0154ZM33.2028 32.9804L34.4433 33.134L33.2028 32.9804ZM5.02663 34.8334L3.7861 34.987C3.83409 35.3746 4.06051 35.7175 4.39814 35.9139C4.73576 36.1103 5.14577 36.1376 5.50644 35.9877L5.02663 34.8334ZM5.63099 29.0154L4.55594 28.3776L5.63099 29.0154ZM4.79722 32.9804L6.03775 32.8268L4.79722 32.9804ZM9.90203 31.4151L8.82699 30.7773L9.90203 31.4151ZM6.79037 34.1003L6.31057 32.946H6.31057L6.79037 34.1003ZM20.2501 3.16676C20.2501 2.47641 19.6905 1.91676 19.0001 1.91675C18.3098 1.91674 17.7501 2.47638 17.7501 3.16673L20.2501 3.16676ZM4.75 25.0001H33.25V22.5001H4.75V25.0001ZM31.9623 32.8268L31.7328 34.6798L34.2139 34.987L34.4433 33.134L31.9623 32.8268ZM33.4532 33.6792L31.6894 32.946L30.7298 35.2545L32.4936 35.9877L33.4532 33.6792ZM27.0229 32.0529C27.8743 33.4878 29.1769 34.609 30.7298 35.2545L31.6894 32.946C30.6256 32.5038 29.7445 31.7405 29.173 30.7773L27.0229 32.0529ZM31.294 29.6532C31.8651 30.6158 32.0982 31.729 31.9623 32.8268L34.4433 33.134C34.6478 31.4825 34.2957 29.8131 33.4441 28.3776L31.294 29.6532ZM6.31057 32.946L4.54682 33.6792L5.50644 35.9877L7.27018 35.2545L6.31057 32.946ZM6.26716 34.6798L6.03775 32.8268L3.55669 33.134L3.7861 34.987L6.26716 34.6798ZM4.55594 28.3776C3.70425 29.8131 3.35224 31.4825 3.55669 33.134L6.03775 32.8268C5.90183 31.729 6.13493 30.6158 6.70603 29.6532L4.55594 28.3776ZM8.82699 30.7773C8.25553 31.7405 7.37445 32.5038 6.31057 32.946L7.27018 35.2545C8.82313 34.609 10.1257 33.4878 10.9771 32.0529L8.82699 30.7773ZM15.3183 11.1657C15.3183 9.23729 16.9344 7.61633 19.0001 7.61633V5.11633C15.6182 5.11633 12.8183 7.79288 12.8183 11.1657H15.3183ZM19.0001 7.61633C21.0657 7.61633 22.6818 9.23729 22.6818 11.1657H25.1818C25.1818 7.79288 22.3819 5.11633 19.0001 5.11633V7.61633ZM22.6818 11.1657C22.6818 11.8249 22.4966 12.4402 22.1718 12.9693L24.3025 14.277C24.8601 13.3685 25.1818 12.3028 25.1818 11.1657H22.6818ZM22.1621 14.261L31.294 29.6532L33.4441 28.3776L24.3122 12.9854L22.1621 14.261ZM15.8283 12.9692C15.5035 12.4401 15.3183 11.8249 15.3183 11.1657H12.8183C12.8183 12.3027 13.14 13.3684 13.6975 14.2769L15.8283 12.9692ZM6.70603 29.6532L15.8379 14.2609L13.6879 12.9853L4.55594 28.3776L6.70603 29.6532ZM22.1718 12.9693C21.5426 13.9945 20.3888 14.6971 19.0519 14.7147L19.0849 17.2145C21.2926 17.1853 23.2318 16.0215 24.3025 14.277L22.1718 12.9693ZM19.0519 14.7147C19.0347 14.715 19.0174 14.7151 19.0001 14.7151V17.2151C19.0284 17.2151 19.0567 17.2149 19.0849 17.2145L19.0519 14.7147ZM17.9934 15.3268L8.82699 30.7773L10.9771 32.0529L20.1435 16.6024L17.9934 15.3268ZM19.0001 14.7151C18.9827 14.7151 18.9654 14.715 18.9481 14.7147L18.915 17.2145C18.9433 17.2149 18.9717 17.2151 19.0001 17.2151V14.7151ZM18.9481 14.7147C17.6112 14.697 16.4574 13.9945 15.8283 12.9692L13.6975 14.2769C14.7682 16.0214 16.7073 17.1853 18.915 17.2145L18.9481 14.7147ZM29.173 30.7773L20.0066 15.3268L17.8565 16.6024L27.0229 32.0529L29.173 30.7773ZM20.2501 6.36635L20.2501 3.16676L17.7501 3.16673L17.7501 6.36632L20.2501 6.36635Z" fill="#565CDA"/>
</svg>
