<svg width="38" height="38" viewBox="0 0 38 38" fill="none" xmlns="http://www.w3.org/2000/svg">
<path d="M18.9998 22.1668C20.7487 22.1668 22.1665 20.749 22.1665 19.0001C22.1665 17.2512 20.7487 15.8334 18.9998 15.8334C17.2509 15.8334 15.8332 17.2512 15.8332 19.0001C15.8332 20.749 17.2509 22.1668 18.9998 22.1668ZM18.9998 22.1668V34.8334M11.0832 9.50008H26.9165C28.6654 9.50008 30.0832 8.08232 30.0832 6.33342C30.0832 4.58451 28.6654 3.16675 26.9165 3.16675H11.0832C9.33427 3.16675 7.9165 4.58451 7.9165 6.33342C7.9165 8.08232 9.33427 9.50008 11.0832 9.50008ZM11.0705 9.50008H26.9292L29.6431 17.9364C30.4298 19.923 30.1511 22.1369 28.8919 23.9034L20.507 34.083C19.7937 35.0836 18.206 35.0836 17.4927 34.083L9.10778 23.9034C7.84854 22.1369 7.56984 19.923 8.35659 17.9364L11.0705 9.50008Z" stroke="#77CB7F" stroke-width="2.5"/>
</svg>
