<svg width="38" height="38" viewBox="0 0 38 38" fill="none" xmlns="http://www.w3.org/2000/svg">
<path d="M24.291 24.2909C16.9858 31.5961 8.69494 35.1494 5.77286 32.2273C2.85079 29.3052 6.404 21.0143 13.7092 13.7091C21.0144 6.40388 29.3052 2.85065 32.2273 5.77274C35.1494 8.69483 31.5961 16.9857 24.291 24.2909Z" stroke="#B67F4C" stroke-width="2.5"/>
<path d="M24.2908 13.7091C31.596 21.0143 35.1492 29.3052 32.2271 32.2273C29.3051 35.1493 21.0142 31.5961 13.709 24.2909C6.40386 16.9857 2.85065 8.69481 5.77272 5.77273C8.6948 2.85064 16.9856 6.40387 24.2908 13.7091Z" stroke="#B67F4C" stroke-width="2.5"/>
<path d="M22.1667 19C22.1667 20.7489 20.7489 22.1667 19 22.1667C17.2511 22.1667 15.8333 20.7489 15.8333 19C15.8333 17.2511 17.2511 15.8333 19 15.8333C20.7489 15.8333 22.1667 17.2511 22.1667 19Z" stroke="#B67F4C" stroke-width="2.5"/>
</svg>
