<svg width="38" height="38" viewBox="0 0 38 38" fill="none" xmlns="http://www.w3.org/2000/svg">
<path d="M9.49984 15.8334H11.0832C12.8321 15.8334 14.2498 14.4157 14.2498 12.6668V11.8751C14.2498 10.5634 15.3132 9.50008 16.6248 9.50008C17.9365 9.50008 18.9998 10.5634 18.9998 11.8751V19.7918C18.9998 21.1034 20.0632 22.1668 21.3748 22.1668C22.6865 22.1668 23.7498 21.1034 23.7498 19.7918V19.0001C23.7498 17.2512 25.1676 15.8334 26.9165 15.8334H28.4998M18.9998 28.5001V34.8334M9.49984 28.5001H28.4998C31.9976 28.5001 34.8332 25.6646 34.8332 22.1668V9.50008C34.8332 6.00228 31.9976 3.16675 28.4998 3.16675H9.49984C6.00203 3.16675 3.1665 6.00228 3.1665 9.50008V22.1668C3.1665 25.6646 6.00203 28.5001 9.49984 28.5001Z" stroke="#C95656" stroke-width="2.5" stroke-linecap="round"/>
<path d="M22.1665 34.8333L15.8332 34.8333" stroke="#C95656" stroke-width="1.5" stroke-linecap="round"/>
</svg>
