<svg width="38" height="38" viewBox="0 0 38 38" fill="none" xmlns="http://www.w3.org/2000/svg">
<path d="M15.8534 34.5208L16.1005 33.2954L15.8534 34.5208ZM30.1706 30.221L29.2887 29.3351L30.1706 30.221ZM18.6665 11.8751C18.6665 9.87305 17.0435 8.25008 15.0415 8.25008V10.7501C15.6628 10.7501 16.1665 11.2538 16.1665 11.8751H18.6665ZM15.0415 8.25008C13.0395 8.25008 11.4165 9.87305 11.4165 11.8751H13.9165C13.9165 11.2538 14.4202 10.7501 15.0415 10.7501V8.25008ZM11.4165 11.8751C11.4165 13.8771 13.0395 15.5001 15.0415 15.5001V13.0001C14.4202 13.0001 13.9165 12.4964 13.9165 11.8751H11.4165ZM15.0415 15.5001C17.0435 15.5001 18.6665 13.8771 18.6665 11.8751H16.1665C16.1665 12.4964 15.6628 13.0001 15.0415 13.0001V15.5001ZM30.5415 15.8334C30.5415 13.8314 28.9185 12.2084 26.9165 12.2084V14.7084C27.5378 14.7084 28.0415 15.2121 28.0415 15.8334H30.5415ZM26.9165 12.2084C24.9145 12.2084 23.2915 13.8314 23.2915 15.8334H25.7915C25.7915 15.2121 26.2952 14.7084 26.9165 14.7084V12.2084ZM23.2915 15.8334C23.2915 17.8354 24.9145 19.4584 26.9165 19.4584V16.9584C26.2952 16.9584 25.7915 16.4547 25.7915 15.8334H23.2915ZM26.9165 19.4584C28.9185 19.4584 30.5415 17.8354 30.5415 15.8334H28.0415C28.0415 16.4547 27.5378 16.9584 26.9165 16.9584V19.4584ZM16.2915 24.5417C16.2915 22.5397 14.6685 20.9167 12.6665 20.9167V23.4167C13.2878 23.4167 13.7915 23.9204 13.7915 24.5417H16.2915ZM12.6665 20.9167C10.6645 20.9167 9.04151 22.5397 9.04151 24.5417H11.5415C11.5415 23.9204 12.0452 23.4167 12.6665 23.4167V20.9167ZM9.04151 24.5417C9.04151 26.5438 10.6645 28.1667 12.6665 28.1667V25.6667C12.0452 25.6667 11.5415 25.1631 11.5415 24.5417H9.04151ZM12.6665 28.1667C14.6685 28.1667 16.2915 26.5438 16.2915 24.5417H13.7915C13.7915 25.1631 13.2878 25.6667 12.6665 25.6667V28.1667ZM16.1005 33.2954C9.43518 31.9515 4.4165 26.0605 4.4165 19.0001H1.9165C1.9165 27.274 7.79727 34.1716 15.6063 35.7461L16.1005 33.2954ZM4.4165 19.0001C4.4165 10.9459 10.9457 4.41675 18.9998 4.41675V1.91675C9.56497 1.91675 1.9165 9.56522 1.9165 19.0001H4.4165ZM18.9998 4.41675C27.054 4.41675 33.5832 10.9459 33.5832 19.0001H36.0832C36.0832 9.56522 28.4347 1.91675 18.9998 1.91675V4.41675ZM22.5184 23.7686C23.7712 23.7686 24.7869 24.7843 24.7869 26.0371H27.2869C27.2869 23.4035 25.1519 21.2686 22.5184 21.2686V23.7686ZM20.2498 26.0371C20.2498 24.7843 21.2655 23.7686 22.5184 23.7686V21.2686C19.8848 21.2686 17.7498 23.4035 17.7498 26.0371H20.2498ZM24.7869 26.0371V28.0777H27.2869V26.0371H24.7869ZM33.5832 19.0001C33.5832 23.0392 31.9427 26.6929 29.2887 29.3351L31.0525 31.1068C34.1585 28.0146 36.0832 23.7309 36.0832 19.0001H33.5832ZM17.7498 26.0371V31.6667H20.2498V26.0371H17.7498ZM24.7869 28.0777C24.7869 29.6963 25.6414 31.0755 26.8813 31.7506C28.168 32.4512 29.8083 32.3455 31.0525 31.1068L29.2887 29.3351C28.867 29.755 28.4404 29.753 28.0768 29.555C27.6663 29.3315 27.2869 28.8099 27.2869 28.0777H24.7869ZM15.6063 35.7461C18.2668 36.2825 20.2498 34.0196 20.2498 31.6667H17.7498C17.7498 32.8117 16.8688 33.4504 16.1005 33.2954L15.6063 35.7461Z" fill="#4DAFA5"/>
</svg>
